<?xml version="1.0" standalone="no"?><!DOCTYPE svg PUBLIC "-//W3C//DTD SVG 1.1//EN" "http://www.w3.org/Graphics/SVG/1.1/DTD/svg11.dtd"><svg t="1751176166031" class="icon" viewBox="0 0 1152 1024" version="1.1" xmlns="http://www.w3.org/2000/svg" p-id="1600" xmlns:xlink="http://www.w3.org/1999/xlink" width="225" height="200"><path d="M540.762549 480.041612c-41.545904 0-102.4-64.049935-118.379194-105.595838-15.979194-35.287386-3.195839-57.658257 6.391678-67.245774 41.679064-41.545904 118.379194-76.83329 163.254096-28.762549 31.958388 31.958388 13.315995 124.770871 0 156.729259-13.315995 38.483225-35.154226 44.874902-51.26658 44.874902z m-60.720937-131.295708A199.739922 199.739922 0 0 0 534.370871 412.795839a223.309233 223.309233 0 0 0 13.315995-89.616645c-13.315995-6.391678-41.545904 3.195839-66.579974 25.56671z" fill="#444444" p-id="1601"></path><path d="M768.06658 64.049935v63.916775H384.03329v-63.916775h384.03329m25.56671 291.220806h13.315995a72.039532 72.039532 0 0 1 57.658257 54.329259A134.891027 134.891027 0 0 0 953.691547 506.007802l118.379194 35.154227 19.175033 6.391677v112.120676l-169.645774-51.66606a159.791938 159.791938 0 0 0-38.350065-6.391677 123.838752 123.838752 0 0 0-86.420806 35.154226 70.707932 70.707932 0 0 1-48.070741 19.308193 89.882965 89.882965 0 0 1-28.762549-6.524838A68.976853 68.976853 0 0 1 679.115735 579.245774a75.368531 75.368531 0 0 1 22.370871-44.874903 96.540962 96.540962 0 0 0 28.762549-96.008322 72.172692 72.172692 0 0 1 6.391677-51.13342c6.391678-19.175033 32.091547-31.958388 57.658258-31.958388m-506.007803 76.70013a103.997919 103.997919 0 0 1 44.741743 13.315995 62.851495 62.851495 0 0 1 28.895709 44.874903 93.211964 93.211964 0 0 0 66.579974 73.637451 70.841092 70.841092 0 0 1 41.679063 31.958387 77.49909 77.49909 0 0 1-6.391677 86.420807 73.504291 73.504291 0 0 1-54.462419 25.56671 47.404941 47.404941 0 0 1-22.370871-3.195839 159.791938 159.791938 0 0 0-38.483225-6.391678 137.287906 137.287906 0 0 0-89.217165 34.222107L70.441612 905.487646V752.087386l44.741743-38.483225 70.441612-64.049935a133.159948 133.159948 0 0 0 41.545904-124.770871 73.504291 73.504291 0 0 1 28.895709-76.83329 31.958388 31.958388 0 0 1 31.958387-15.979194M800.024967 0H352.074902A34.355267 34.355267 0 0 0 319.583875 31.958388v32.091547H31.958388A34.355267 34.355267 0 0 0 0 96.008322V992.041612a34.355267 34.355267 0 0 0 31.958388 31.958388h1088.049934a34.488427 34.488427 0 0 0 32.091548-31.958388V96.008322a34.488427 34.488427 0 0 0-32.091548-31.958387H831.983355V31.958388a34.355267 34.355267 0 0 0-31.958388-31.958388zM352.074902 192.016645h447.950065a34.355267 34.355267 0 0 0 31.958388-31.958388V127.96671h256.06658v352.074902l-118.379194-35.287386a62.185696 62.185696 0 0 1-44.874902-47.937581 137.154746 137.154746 0 0 0-105.595839-105.595839c-9.587516 0-15.979194-3.195839-25.56671-3.195839a131.961508 131.961508 0 0 0-118.379194 70.441613 145.011183 145.011183 0 0 0-13.315995 96.008322 30.626788 30.626788 0 0 1-9.587516 31.958388A159.791938 159.791938 0 0 0 608.008322 572.587776a137.687386 137.687386 0 0 0 79.895969 137.554227 168.047854 168.047854 0 0 0 54.329259 13.315994 128.09987 128.09987 0 0 0 93.211964-38.350065 75.63485 75.63485 0 0 1 41.679063-15.979193 62.452016 62.452016 0 0 1 22.370872 3.195838l188.820806 57.525098V960.083225h-985.383615l194.679844-179.23329a63.117815 63.117815 0 0 1 44.741742-19.175033 41.013264 41.013264 0 0 1 19.308193 3.195839 188.554486 188.554486 0 0 0 44.741742 6.391678 130.097269 130.097269 0 0 0 102.4-48.070741 140.350585 140.350585 0 0 0-64.049935-223.975033 31.026268 31.026268 0 0 1-22.370871-25.56671 127.96671 127.96671 0 0 0-54.329259-83.224968 138.086866 138.086866 0 0 0-159.791937 0 143.546424 143.546424 0 0 0-54.329259 143.945904 63.117815 63.117815 0 0 1-22.504031 64.049935l-70.574773 64.049935V127.96671h255.93342V159.791938a40.613784 40.613784 0 0 0 35.287386 31.958387z" fill="#444444" p-id="1602"></path></svg>